<svg id="Layer_1" data-name="Layer 1" xmlns="http://www.w3.org/2000/svg" viewBox="0 0 1000 1000"><defs><style>.cls-1{fill-rule:evenodd;}</style></defs><path class="cls-1" d="M499.73,233.69a211.76,211.76,0,0,0-139.51-52C244,181.72,149.78,274.3,149.78,388.5a204.4,204.4,0,0,0,52.61,137.35L500,818.28,788.8,534.51l8.54-8.93A204,204,0,0,0,850.22,388.5c0-114.2-94.22-206.78-210.44-206.78a211.76,211.76,0,0,0-139.51,52l-.27-.27Zm.27,77.25,2.14,1.86,33.19-32.62,3.46-3a153.1,153.1,0,0,1,101-37.58c84.48,0,152.07,67.16,152.07,148.91a146.36,146.36,0,0,1-37.5,97.92L747.07,494,500,736.8,244.83,486.08a146.87,146.87,0,0,1-36.68-97.58c0-81.75,67.59-148.91,152.07-148.91a153.1,153.1,0,0,1,101,37.58l3.46,3,33.2,32.62Z"/></svg>