<svg id="Layer_1" data-name="Layer 1" xmlns="http://www.w3.org/2000/svg" viewBox="0 0 1000 1000"><defs><style>.cls-1{fill-rule:evenodd;}</style></defs><path class="cls-1" d="M566.55,256.06c0-67.37,55.33-122,123.59-122s123.59,54.61,123.59,122S758.39,378,690.14,378a124,124,0,0,1-88-36.35L431,457.17a121,121,0,0,1-6.72,70.14l187.6,122.2A124.14,124.14,0,0,1,690.14,622c68.25,0,123.59,54.61,123.59,122s-55.34,122-123.59,122S566.55,811.31,566.55,744a120.38,120.38,0,0,1,10.65-49.61L391.12,573.14a124.13,124.13,0,0,1-81.26,30.07c-68.25,0-123.59-54.61-123.59-122s55.34-122,123.59-122a124,124,0,0,1,96.81,46.16L572.49,293.49A120.32,120.32,0,0,1,566.55,256.06Z"/></svg>