<svg id="Layer_1" data-name="Layer 1" xmlns="http://www.w3.org/2000/svg" viewBox="0 0 1000 1000"><defs><style>.cls-1{fill-rule:evenodd;}</style></defs><path class="cls-1" d="M393.15,536.89a28,28,0,1,0,28.39,28A28.15,28.15,0,0,0,393.15,536.89Zm31.06-41.36c-16.8-5.68-33.59-7.79-49.72-4-16.39,3.83-31.72,13.61-45.58,31.58a12.31,12.31,0,0,0,2.53,17.18,12.52,12.52,0,0,0,17.2-2.51c9.86-13,20.39-20,31.45-22.46,11.33-2.65,23.72-1.06,36.39,3.17a12.23,12.23,0,0,0,15.59-7.67A12.08,12.08,0,0,0,424.21,495.53ZM554.69,709.6a14,14,0,0,0-19.19-4.49c-11.19,6.87-22.66,10-34.12,9.78-12-.27-24.39-4.1-37.19-11.1a14.2,14.2,0,0,0-19.06,5.41,13.83,13.83,0,0,0,5.47,18.9c16.79,9.12,33.45,14.14,50.25,14.54s33.32-4.23,49.31-14A13.57,13.57,0,0,0,554.69,709.6Zm52.25-172.71a28,28,0,1,0,28.26,28A28.27,28.27,0,0,0,606.94,536.89Zm64.25-13.74c-13.6-18-29.06-27.75-45.59-31.58-16.12-3.83-32.92-1.72-49.71,4a12.13,12.13,0,1,0,7.73,23c12.93-4.1,25.19-5.95,36.38-3.17,11.2,2.51,21.6,9.38,31.46,22.46a12.41,12.41,0,0,0,17.19,2.51A12.19,12.19,0,0,0,671.19,523.15Zm0,0c-13.6-18-29.06-27.75-45.59-31.58-16.12-3.83-32.92-1.72-49.71,4a12.13,12.13,0,1,0,7.73,23c12.93-4.1,25.19-5.95,36.38-3.17,11.2,2.51,21.6,9.38,31.46,22.46a12.41,12.41,0,0,0,17.19,2.51A12.19,12.19,0,0,0,671.19,523.15Zm-64.25,13.74a28,28,0,1,0,28.26,28A28.27,28.27,0,0,0,606.94,536.89ZM554.69,709.6a14,14,0,0,0-19.19-4.49c-11.19,6.87-22.66,10-34.12,9.78-12-.27-24.39-4.1-37.19-11.1a14.2,14.2,0,0,0-19.06,5.41,13.83,13.83,0,0,0,5.47,18.9c16.79,9.12,33.45,14.14,50.25,14.54s33.32-4.23,49.31-14A13.57,13.57,0,0,0,554.69,709.6ZM424.21,495.53c-16.8-5.68-33.59-7.79-49.72-4-16.39,3.83-31.72,13.61-45.58,31.58a12.31,12.31,0,0,0,2.53,17.18,12.52,12.52,0,0,0,17.2-2.51c9.86-13,20.39-20,31.45-22.46,11.33-2.65,23.72-1.06,36.39,3.17a12.23,12.23,0,0,0,15.59-7.67A12.08,12.08,0,0,0,424.21,495.53Zm-31.06,41.36a28,28,0,1,0,28.39,28A28.15,28.15,0,0,0,393.15,536.89Zm0,0a28,28,0,1,0,28.39,28A28.15,28.15,0,0,0,393.15,536.89Zm31.06-41.36c-16.8-5.68-33.59-7.79-49.72-4-16.39,3.83-31.72,13.61-45.58,31.58a12.31,12.31,0,0,0,2.53,17.18,12.52,12.52,0,0,0,17.2-2.51c9.86-13,20.39-20,31.45-22.46,11.33-2.65,23.72-1.06,36.39,3.17a12.23,12.23,0,0,0,15.59-7.67A12.08,12.08,0,0,0,424.21,495.53ZM554.69,709.6a14,14,0,0,0-19.19-4.49c-11.19,6.87-22.66,10-34.12,9.78-12-.27-24.39-4.1-37.19-11.1a14.2,14.2,0,0,0-19.06,5.41,13.83,13.83,0,0,0,5.47,18.9c16.79,9.12,33.45,14.14,50.25,14.54s33.32-4.23,49.31-14A13.57,13.57,0,0,0,554.69,709.6Zm52.25-172.71a28,28,0,1,0,28.26,28A28.27,28.27,0,0,0,606.94,536.89Zm64.25-13.74c-13.6-18-29.06-27.75-45.59-31.58-16.12-3.83-32.92-1.72-49.71,4a12.13,12.13,0,1,0,7.73,23c12.93-4.1,25.19-5.95,36.38-3.17,11.2,2.51,21.6,9.38,31.46,22.46a12.41,12.41,0,0,0,17.19,2.51A12.19,12.19,0,0,0,671.19,523.15Zm0,0c-13.6-18-29.06-27.75-45.59-31.58-16.12-3.83-32.92-1.72-49.71,4a12.13,12.13,0,1,0,7.73,23c12.93-4.1,25.19-5.95,36.38-3.17,11.2,2.51,21.6,9.38,31.46,22.46a12.41,12.41,0,0,0,17.19,2.51A12.19,12.19,0,0,0,671.19,523.15Zm-64.25,13.74a28,28,0,1,0,28.26,28A28.27,28.27,0,0,0,606.94,536.89ZM535.5,705.11c-11.19,6.87-22.66,10-34.12,9.78-12-.27-24.39-4.1-37.19-11.1a14.2,14.2,0,0,0-19.06,5.41,13.83,13.83,0,0,0,5.47,18.9c16.79,9.12,33.45,14.14,50.25,14.54s33.32-4.23,49.31-14a13.57,13.57,0,0,0,4.53-19A14,14,0,0,0,535.5,705.11ZM424.21,495.53c-16.8-5.68-33.59-7.79-49.72-4-16.39,3.83-31.72,13.61-45.58,31.58a12.31,12.31,0,0,0,2.53,17.18,12.52,12.52,0,0,0,17.2-2.51c9.86-13,20.39-20,31.45-22.46,11.33-2.65,23.72-1.06,36.39,3.17a12.23,12.23,0,0,0,15.59-7.67A12.08,12.08,0,0,0,424.21,495.53Zm-31.06,41.36a28,28,0,1,0,28.39,28A28.15,28.15,0,0,0,393.15,536.89ZM740.23,288.73c-46.78-55.36-244.18-99.36-333.08-131.61C340.5,132.94,388.89,195.71,360,207.2c-79.43,31.72-143.54,97.39-138.61,207.2l35,11a11.59,11.59,0,0,0-.8,4.36c-3.33,176.41-32.25,244.46,107.16,367.35C384.09,815.84,404,826,427.94,835c24.39,9,41.72,13,70,13.35,71.45,1.06,142.49-32.64,189.54-85.23C766.75,674.32,752,571.25,752,462.23c5.73.53,10.66-.52,14.79-3.43,8.8-6.21,11.73-22.86,12-42C779.68,358.11,778.08,333.66,740.23,288.73Zm-74,456a228.76,228.76,0,0,1-76.37,55.76c-28.39,12.82-58.91,19.69-89,19.69-15.46,0-41.72-2.77-55.85-8.32-12-3.83-29.05-11.23-40.52-18.37a165.91,165.91,0,0,1-23.19-17.18c-129.82-114.17-100.76-175.74-97.7-340.66A211.92,211.92,0,0,0,307.18,404a191.53,191.53,0,0,0,13.73-26.56c41.45,10.84,77,18.1,122.22,22.2,49.19,4.23,109.7,4.23,202.07.26,3.06-.26,5.06-.39,7.19-.39,23.46-1.19,39.72-2,57.05,18.1A55.26,55.26,0,0,1,719.7,436.2a87.92,87.92,0,0,1,4,24.45C723.7,560.55,738.5,663.75,666.25,744.75ZM625.6,491.57c-16.12-3.83-32.92-1.72-49.71,4a12.13,12.13,0,1,0,7.73,23c12.93-4.1,25.19-5.95,36.38-3.17,11.2,2.51,21.6,9.38,31.46,22.46a12.41,12.41,0,0,0,17.19,2.51,12.19,12.19,0,0,0,2.54-17.18C657.59,505.18,642.13,495.4,625.6,491.57Zm-18.66,45.32a28,28,0,1,0,28.26,28A28.27,28.27,0,0,0,606.94,536.89ZM535.5,705.11c-11.19,6.87-22.66,10-34.12,9.78-12-.27-24.39-4.1-37.19-11.1a14.2,14.2,0,0,0-19.06,5.41,13.83,13.83,0,0,0,5.47,18.9c16.79,9.12,33.45,14.14,50.25,14.54s33.32-4.23,49.31-14a13.57,13.57,0,0,0,4.53-19A14,14,0,0,0,535.5,705.11ZM424.21,495.53c-16.8-5.68-33.59-7.79-49.72-4-16.39,3.83-31.72,13.61-45.58,31.58a12.31,12.31,0,0,0,2.53,17.18,12.52,12.52,0,0,0,17.2-2.51c9.86-13,20.39-20,31.45-22.46,11.33-2.65,23.72-1.06,36.39,3.17a12.23,12.23,0,0,0,15.59-7.67A12.08,12.08,0,0,0,424.21,495.53Zm-31.06,41.36a28,28,0,1,0,28.39,28A28.15,28.15,0,0,0,393.15,536.89Zm0,0a28,28,0,1,0,28.39,28A28.15,28.15,0,0,0,393.15,536.89Zm31.06-41.36c-16.8-5.68-33.59-7.79-49.72-4-16.39,3.83-31.72,13.61-45.58,31.58a12.31,12.31,0,0,0,2.53,17.18,12.52,12.52,0,0,0,17.2-2.51c9.86-13,20.39-20,31.45-22.46,11.33-2.65,23.72-1.06,36.39,3.17a12.23,12.23,0,0,0,15.59-7.67A12.08,12.08,0,0,0,424.21,495.53ZM554.69,709.6a14,14,0,0,0-19.19-4.49c-11.19,6.87-22.66,10-34.12,9.78-12-.27-24.39-4.1-37.19-11.1a14.2,14.2,0,0,0-19.06,5.41,13.83,13.83,0,0,0,5.47,18.9c16.79,9.12,33.45,14.14,50.25,14.54s33.32-4.23,49.31-14A13.57,13.57,0,0,0,554.69,709.6Zm52.25-172.71a28,28,0,1,0,28.26,28A28.27,28.27,0,0,0,606.94,536.89Zm64.25-13.74c-13.6-18-29.06-27.75-45.59-31.58-16.12-3.83-32.92-1.72-49.71,4a12.13,12.13,0,1,0,7.73,23c12.93-4.1,25.19-5.95,36.38-3.17,11.2,2.51,21.6,9.38,31.46,22.46a12.41,12.41,0,0,0,17.19,2.51A12.19,12.19,0,0,0,671.19,523.15Zm0,0c-13.6-18-29.06-27.75-45.59-31.58-16.12-3.83-32.92-1.72-49.71,4a12.13,12.13,0,1,0,7.73,23c12.93-4.1,25.19-5.95,36.38-3.17,11.2,2.51,21.6,9.38,31.46,22.46a12.41,12.41,0,0,0,17.19,2.51A12.19,12.19,0,0,0,671.19,523.15Zm-64.25,13.74a28,28,0,1,0,28.26,28A28.27,28.27,0,0,0,606.94,536.89ZM554.69,709.6a14,14,0,0,0-19.19-4.49c-11.19,6.87-22.66,10-34.12,9.78-12-.27-24.39-4.1-37.19-11.1a14.2,14.2,0,0,0-19.06,5.41,13.83,13.83,0,0,0,5.47,18.9c16.79,9.12,33.45,14.14,50.25,14.54s33.32-4.23,49.31-14A13.57,13.57,0,0,0,554.69,709.6ZM424.21,495.53c-16.8-5.68-33.59-7.79-49.72-4-16.39,3.83-31.72,13.61-45.58,31.58a12.31,12.31,0,0,0,2.53,17.18,12.52,12.52,0,0,0,17.2-2.51c9.86-13,20.39-20,31.45-22.46,11.33-2.65,23.72-1.06,36.39,3.17a12.23,12.23,0,0,0,15.59-7.67A12.08,12.08,0,0,0,424.21,495.53Zm-31.06,41.36a28,28,0,1,0,28.39,28A28.15,28.15,0,0,0,393.15,536.89Zm213.79,0a28,28,0,1,0,28.26,28A28.27,28.27,0,0,0,606.94,536.89Zm-213.79,0a28,28,0,1,0,28.39,28A28.15,28.15,0,0,0,393.15,536.89Zm278-13.74c-13.6-18-29.06-27.75-45.59-31.58-16.12-3.83-32.92-1.72-49.71,4a12.13,12.13,0,1,0,7.73,23c12.93-4.1,25.19-5.95,36.38-3.17,11.2,2.51,21.6,9.38,31.46,22.46a12.41,12.41,0,0,0,17.19,2.51A12.19,12.19,0,0,0,671.19,523.15Zm-247-27.62c-16.8-5.68-33.59-7.79-49.72-4-16.39,3.83-31.72,13.61-45.58,31.58a12.31,12.31,0,0,0,2.53,17.18,12.52,12.52,0,0,0,17.2-2.51c9.86-13,20.39-20,31.45-22.46,11.33-2.65,23.72-1.06,36.39,3.17a12.23,12.23,0,0,0,15.59-7.67A12.08,12.08,0,0,0,424.21,495.53ZM554.69,709.6a14,14,0,0,0-19.19-4.49c-11.19,6.87-22.66,10-34.12,9.78-12-.27-24.39-4.1-37.19-11.1a14.2,14.2,0,0,0-19.06,5.41,13.83,13.83,0,0,0,5.47,18.9c16.79,9.12,33.45,14.14,50.25,14.54s33.32-4.23,49.31-14A13.57,13.57,0,0,0,554.69,709.6ZM393.15,536.89a28,28,0,1,0,28.39,28A28.15,28.15,0,0,0,393.15,536.89Zm31.06-41.36c-16.8-5.68-33.59-7.79-49.72-4-16.39,3.83-31.72,13.61-45.58,31.58a12.31,12.31,0,0,0,2.53,17.18,12.52,12.52,0,0,0,17.2-2.51c9.86-13,20.39-20,31.45-22.46,11.33-2.65,23.72-1.06,36.39,3.17a12.23,12.23,0,0,0,15.59-7.67A12.08,12.08,0,0,0,424.21,495.53ZM554.69,709.6a14,14,0,0,0-19.19-4.49c-11.19,6.87-22.66,10-34.12,9.78-12-.27-24.39-4.1-37.19-11.1a14.2,14.2,0,0,0-19.06,5.41,13.83,13.83,0,0,0,5.47,18.9c16.79,9.12,33.45,14.14,50.25,14.54s33.32-4.23,49.31-14A13.57,13.57,0,0,0,554.69,709.6Zm52.25-172.71a28,28,0,1,0,28.26,28A28.27,28.27,0,0,0,606.94,536.89Zm64.25-13.74c-13.6-18-29.06-27.75-45.59-31.58-16.12-3.83-32.92-1.72-49.71,4a12.13,12.13,0,1,0,7.73,23c12.93-4.1,25.19-5.95,36.38-3.17,11.2,2.51,21.6,9.38,31.46,22.46a12.41,12.41,0,0,0,17.19,2.51A12.19,12.19,0,0,0,671.19,523.15Z"/></svg>