<svg id="Layer_1" data-name="Layer 1" xmlns="http://www.w3.org/2000/svg" viewBox="0 0 1000 1000"><defs><style>.cls-1{stroke:#000;stroke-miterlimit:10;stroke-width:17.36px;}</style></defs><g id="Layer_32" data-name="Layer 32"><path class="cls-1" d="M761.89,287.61,706.7,342.32V751.67H817.07V342.32ZM795,729.79H728.77V675.08H795Zm-66.23-76.6V351.29l33.12-32.82L795,351.29v301.9Z"/><path class="cls-1" d="M635.73,248.33h-6.29V204.56a22,22,0,0,0-22.08-21.89H585.29a22,22,0,0,0-22.07,21.89v43.77H309.36V204.56a22,22,0,0,0-22.07-21.89H265.21a22,22,0,0,0-22.07,21.89v43.77H225.81A28.85,28.85,0,0,0,199,278.85V786.8a28.87,28.87,0,0,0,26.82,30.53H635.73a28.87,28.87,0,0,0,26.82-30.53V278.85A28.85,28.85,0,0,0,635.73,248.33Zm-50.44-43.77h22.07v65.65H585.29Zm-320.08,0h22.08v65.65H265.21ZM640.48,786.8c0,5.14-2.87,8.64-4.75,8.64H225.81c-1.88,0-4.75-3.5-4.75-8.64V278.85c0-5.14,2.87-8.64,4.75-8.64h17.33a22,22,0,0,0,22.07,21.89h22.08a22,22,0,0,0,22.07-21.89H563.22a22,22,0,0,0,22.07,21.89h22.07a22,22,0,0,0,22.08-21.89h6.29c1.88,0,4.75,3.5,4.75,8.64Z"/><rect class="cls-1" x="265.21" y="390.58" width="331.12" height="21.88"/><rect class="cls-1" x="265.21" y="456.23" width="331.12" height="21.88"/><rect class="cls-1" x="265.21" y="521.88" width="331.12" height="21.88"/><rect class="cls-1" x="265.21" y="587.54" width="331.12" height="21.88"/></g></svg>