<?xml version="1.0" encoding="utf-8"?>
<!-- Generator: Adobe Illustrator 26.0.1, SVG Export Plug-In . SVG Version: 6.00 Build 0)  -->
<svg version="1.1" id="Layer_1" xmlns="http://www.w3.org/2000/svg" xmlns:xlink="http://www.w3.org/1999/xlink" x="0px" y="0px"
	 viewBox="0 0 423 520" style="enable-background:new 0 0 423 520;" xml:space="preserve">
<style type="text/css">
	.st0{fill:#FFFFFF;}
	.st1{fill:none;stroke:#010101;stroke-width:3;stroke-miterlimit:10;}
	.st2{fill:#010101;}
	.st3{fill:#FFFFFF;stroke:#010101;stroke-miterlimit:10;}
</style>
<g>
	<g>
		<path class="st0" d="M86.56,401.78c0.11,5.5,4.7,10,10.2,10h14.67c5.5,0,10-4.5,9.99-10c0,0-0.06-94.74,7.34-152
			c0.9-6.99,1.47-10.86,1.47-10.86c0.79-5.44,1.44-9.9,1.44-9.9c0,0,0.11-0.74,0.25-1.64c0.14-0.9-0.17-7.71-0.99-13.15
			c0,0-9.43-62.05-12.06-72.77c-0.92-3.73-3.34-13.32-7.11-14c-0.41-0.08-0.41-0.08-0.41-0.08c-0.42,0.14-0.99,0.44-1.26,0.65
			c-0.27,0.22-0.88,0.72-0.88,0.72c0,0-0.06,0.06-0.11,0.12c0,0,0,0-0.05,0.06c-0.76,0.9-0.76,0.9-0.76,0.9
			c-0.73,1.14-2.09,6.5-3.03,11.92c0,0-12.1,69.65-15.84,115.37C84.78,313.82,86.56,401.78,86.56,401.78z"/>
		<path class="st1" d="M86.56,401.78c0.11,5.5,4.7,10,10.2,10h14.67c5.5,0,10-4.5,9.99-10c0,0-0.06-94.74,7.34-152
			c0.9-6.99,1.47-10.86,1.47-10.86c0.79-5.44,1.44-9.9,1.44-9.9c0,0,0.11-0.74,0.25-1.64c0.14-0.9-0.17-7.71-0.99-13.15
			c0,0-9.43-62.05-12.06-72.77c-0.92-3.73-3.34-13.32-7.11-14c-0.41-0.08-0.41-0.08-0.41-0.08c-0.42,0.14-0.99,0.44-1.26,0.65
			c-0.27,0.22-0.88,0.72-0.88,0.72c0,0-0.06,0.06-0.11,0.12c0,0,0,0-0.05,0.06c-0.76,0.9-0.76,0.9-0.76,0.9
			c-0.73,1.14-2.09,6.5-3.03,11.92c0,0-12.1,69.65-15.84,115.37C84.78,313.82,86.56,401.78,86.56,401.78z"/>
	</g>
	<g>
		<path class="st0" d="M119.48,123.06c-4.9,2.51-8.9,4.56-8.9,4.56c0,0,0.35-0.11,0.77-0.25c0,0,0,0,0.41,0.08
			c3.77,0.68,6.19,10.27,7.11,14c2.63,10.72,12.06,72.77,12.06,72.77c0.83,5.44,1.39,10.62,1.25,11.52
			c-0.14,0.9-0.26,1.63-0.51,3.27c0,0,0,0,0,0.01c0,0,0.88,2.19,1.96,4.86c0,0,0,0,1.29,4.93c3.6,13.7,2.67,24.9,2.34,29.33
			c-2.26,29.7,1.59,21.92-3,70.67c-1.77,18.77-7.65,61.76-7.65,61.76c-0.74,5.45,2.73,11.8,7.72,14.11c0,0,13.4,6.21,28.26,8.46
			c10.43,1.58,17.12,2.51,23.67-0.66c7.14-3.46,12.08-10.81,18.33-36.67c0.98-4.08,2.12-8.02,2.66-11.95
			c4.71-34.2,5.08-56.2,5.08-56.2c0.09-5.5,0.25-12.68,0.34-15.95s-1.48-20.25-2.65-21.26c0,0,0,0-1.81-2.64
			c-0.81-1.18-1.71-2.57-2.68-4.18c-10.18-16.54-28.86-54.69-43.15-96.59c-7.42-21.75-12.83-43.65-12.83-43.65
			c-1.32-5.34,0.22-12.07,3.42-14.95c3.2-2.88,4.96-6.67,4.95-6.68s-0.42-0.28-0.9-0.58c0,0,0,0-0.91,0c-1.2,0-1.2,0-1.2,0
			c-2.23,0.53-3.77,0.07-3.43-1.01c0.34-1.08-2.5-2.13-7.39,0.38L119.48,123.06z"/>
		<path class="st1" d="M119.48,123.06c-4.9,2.51-8.9,4.56-8.9,4.56c0,0,0.35-0.11,0.77-0.25c0,0,0,0,0.41,0.08
			c3.77,0.68,6.19,10.27,7.11,14c2.63,10.72,12.06,72.77,12.06,72.77c0.83,5.44,1.39,10.62,1.25,11.52
			c-0.14,0.9-0.26,1.63-0.51,3.27c0,0,0,0,0,0.01c0,0,0.88,2.19,1.96,4.86c0,0,0,0,1.29,4.93c3.6,13.7,2.67,24.9,2.34,29.33
			c-2.26,29.7,1.59,21.92-3,70.67c-1.77,18.77-7.65,61.76-7.65,61.76c-0.74,5.45,2.73,11.8,7.72,14.11c0,0,13.4,6.21,28.26,8.46
			c10.43,1.58,17.12,2.51,23.67-0.66c7.14-3.46,12.08-10.81,18.33-36.67c0.98-4.08,2.12-8.02,2.66-11.95
			c4.71-34.2,5.08-56.2,5.08-56.2c0.09-5.5,0.25-12.68,0.34-15.95s-1.48-20.25-2.65-21.26c0,0,0,0-1.81-2.64
			c-0.81-1.18-1.71-2.57-2.68-4.18c-10.18-16.54-28.86-54.69-43.15-96.59c-7.42-21.75-12.83-43.65-12.83-43.65
			c-1.32-5.34,0.22-12.07,3.42-14.95c3.2-2.88,4.96-6.67,4.95-6.68s-0.42-0.28-0.9-0.58c0,0,0,0-0.91,0c-1.2,0-1.2,0-1.2,0
			c-2.23,0.53-3.77,0.07-3.43-1.01c0.34-1.08-2.5-2.13-7.39,0.38L119.48,123.06z"/>
	</g>
	<g>
		<path class="st0" d="M152.96,118.43c-3.2,2.88-4.74,9.61-3.42,14.95c0,0,5.41,21.9,12.83,43.65
			c14.29,41.9,32.97,80.05,43.15,96.59c0.97,1.61,1.87,3,2.68,4.18c1.81,2.64,1.81,2.64,1.81,2.64c1.17,1.01,2.09,1.02,2.03,0.01
			c-0.05-1-0.23-3.66-0.23-3.66s-0.01-0.06-0.03-0.1c0,0,0,0-0.01-0.04c-0.25-0.88-0.54-1.89-0.86-3.04
			c-0.45-1.54-0.98-3.32-1.6-5.37c-0.31-1.07-0.66-2.22-1.02-3.44c-0.03-0.1-0.03-0.1-0.03-0.1c-0.03-0.1-0.21-0.7-0.4-1.34
			c0,0,0,0-0.17-0.61c-0.5-1.66-1.03-3.47-1.59-5.4c-0.2-0.66-0.2-0.66-0.2-0.66c-0.21-0.76-0.44-1.55-0.51-1.75
			c-0.06-0.2-0.27-0.91-0.33-1.11c0,0,0,0-0.05-0.17c-0.15-0.51-0.29-1.03-0.45-1.56c-0.65-2.24-1.33-4.62-2.05-7.17
			c-0.24-0.83-0.47-1.69-0.71-2.55c-0.51-1.77-1.02-3.59-1.54-5.51c-2.22-7.97-9.72-35.23-17.4-69.75
			c-0.64-2.89-1.28-5.84-1.93-8.84c-5.09-23.71-8.32-42-8.91-65.26c-0.16-6.16-0.16-6.16-0.16-6.16c0.09-4.74-3-5.42-6.87-1.5
			c0,0-2.17,2.2-6.72,9.82c-1.38,2.32-2.56,4.59-3.56,6.75c-0.65,1.39-0.65,1.39-0.65,1.39c-0.59,1.46-1.08,2.65-1.08,2.65
			c0,0-0.36,0.97-0.79,2.14c-0.43,1.18,0.48,3.58,2.71,3.06c0,0,0,0,1.2,0c0.91,0,0.91,0,0.91,0c0.47,0.3,0.87,0.55,0.88,0.56
			C157.91,111.74,156.16,115.54,152.96,118.43z"/>
		<path class="st1" d="M152.96,118.43c-3.2,2.88-4.74,9.61-3.42,14.95c0,0,5.41,21.9,12.83,43.65
			c14.29,41.9,32.97,80.05,43.15,96.59c0.97,1.61,1.87,3,2.68,4.18c1.81,2.64,1.81,2.64,1.81,2.64c1.17,1.01,2.09,1.02,2.03,0.01
			c-0.05-1-0.23-3.66-0.23-3.66s-0.01-0.06-0.03-0.1c0,0,0,0-0.01-0.04c-0.25-0.88-0.54-1.89-0.86-3.04
			c-0.45-1.54-0.98-3.32-1.6-5.37c-0.31-1.07-0.66-2.22-1.02-3.44c-0.03-0.1-0.03-0.1-0.03-0.1c-0.03-0.1-0.21-0.7-0.4-1.34
			c0,0,0,0-0.17-0.61c-0.5-1.66-1.03-3.47-1.59-5.4c-0.2-0.66-0.2-0.66-0.2-0.66c-0.21-0.76-0.44-1.55-0.51-1.75
			c-0.06-0.2-0.27-0.91-0.33-1.11c0,0,0,0-0.05-0.17c-0.15-0.51-0.29-1.03-0.45-1.56c-0.65-2.24-1.33-4.62-2.05-7.17
			c-0.24-0.83-0.47-1.69-0.71-2.55c-0.51-1.77-1.02-3.59-1.54-5.51c-2.22-7.97-9.72-35.23-17.4-69.75
			c-0.64-2.89-1.28-5.84-1.93-8.84c-5.09-23.71-8.32-42-8.91-65.26c-0.16-6.16-0.16-6.16-0.16-6.16c0.09-4.74-3-5.42-6.87-1.5
			c0,0-2.17,2.2-6.72,9.82c-1.38,2.32-2.56,4.59-3.56,6.75c-0.65,1.39-0.65,1.39-0.65,1.39c-0.59,1.46-1.08,2.65-1.08,2.65
			c0,0-0.36,0.97-0.79,2.14c-0.43,1.18,0.48,3.58,2.71,3.06c0,0,0,0,1.2,0c0.91,0,0.91,0,0.91,0c0.47,0.3,0.87,0.55,0.88,0.56
			C157.91,111.74,156.16,115.54,152.96,118.43z"/>
	</g>
	<g>
		<path class="st0" d="M329.77,401.78c-0.11,5.5-4.7,10-10.2,10H304.9c-5.5,0-10-4.5-9.99-10c0,0,0.06-94.74-7.34-152
			c-0.9-6.99-1.47-10.86-1.47-10.86c-0.79-5.44-1.44-9.9-1.44-9.9c0,0-0.11-0.74-0.25-1.64c-0.14-0.9,0.17-7.71,0.99-13.15
			c0,0,9.43-62.05,12.06-72.77c0.92-3.73,3.34-13.32,7.11-14c0.41-0.08,0.41-0.08,0.41-0.08c0.42,0.14,0.99,0.44,1.26,0.65
			c0.27,0.22,0.88,0.72,0.88,0.72s0.06,0.06,0.11,0.12c0,0,0,0,0.05,0.06c0.76,0.9,0.76,0.9,0.76,0.9c0.73,1.14,2.09,6.5,3.03,11.92
			c0,0,12.1,69.65,15.84,115.37C331.55,313.82,329.77,401.78,329.77,401.78z"/>
		<path class="st1" d="M329.77,401.78c-0.11,5.5-4.7,10-10.2,10H304.9c-5.5,0-10-4.5-9.99-10c0,0,0.06-94.74-7.34-152
			c-0.9-6.99-1.47-10.86-1.47-10.86c-0.79-5.44-1.44-9.9-1.44-9.9c0,0-0.11-0.74-0.25-1.64c-0.14-0.9,0.17-7.71,0.99-13.15
			c0,0,9.43-62.05,12.06-72.77c0.92-3.73,3.34-13.32,7.11-14c0.41-0.08,0.41-0.08,0.41-0.08c0.42,0.14,0.99,0.44,1.26,0.65
			c0.27,0.22,0.88,0.72,0.88,0.72s0.06,0.06,0.11,0.12c0,0,0,0,0.05,0.06c0.76,0.9,0.76,0.9,0.76,0.9c0.73,1.14,2.09,6.5,3.03,11.92
			c0,0,12.1,69.65,15.84,115.37C331.55,313.82,329.77,401.78,329.77,401.78z"/>
	</g>
	<g>
		<path class="st0" d="M296.85,123.06c4.9,2.51,8.9,4.56,8.9,4.56c0,0-0.35-0.11-0.77-0.25c0,0,0,0-0.41,0.08
			c-3.77,0.68-6.19,10.27-7.11,14c-2.63,10.72-12.06,72.77-12.06,72.77c-0.83,5.44-1.39,10.62-1.25,11.52s0.26,1.63,0.51,3.27
			c0,0,0,0,0,0.01c0,0-0.88,2.19-1.96,4.86c0,0,0,0-1.29,4.93c-3.6,13.7-2.67,24.9-2.34,29.33c2.26,29.7-1.59,21.92,3,70.67
			c1.77,18.77,7.65,61.76,7.65,61.76c0.74,5.45-2.73,11.8-7.72,14.11c0,0-13.4,6.21-28.26,8.46c-10.43,1.58-17.12,2.51-23.67-0.66
			c-7.14-3.46-12.08-10.81-18.33-36.67c-0.98-4.08-2.12-8.02-2.66-11.95c-4.71-34.2-5.08-56.2-5.08-56.2
			c-0.09-5.5-0.25-12.68-0.34-15.95s1.48-20.25,2.65-21.26c0,0,0,0,1.81-2.64c0.81-1.18,1.71-2.57,2.68-4.18
			c10.18-16.54,28.86-54.69,43.15-96.59c7.42-21.75,12.83-43.65,12.83-43.65c1.32-5.34-0.22-12.07-3.42-14.95
			c-3.2-2.88-4.96-6.67-4.95-6.68c0.01-0.01,0.42-0.28,0.9-0.58c0,0,0,0,0.91,0c1.2,0,1.2,0,1.2,0c2.23,0.53,3.77,0.07,3.43-1.01
			c-0.34-1.08,2.5-2.13,7.39,0.38L296.85,123.06z"/>
		<path class="st1" d="M296.85,123.06c4.9,2.51,8.9,4.56,8.9,4.56c0,0-0.35-0.11-0.77-0.25c0,0,0,0-0.41,0.08
			c-3.77,0.68-6.19,10.27-7.11,14c-2.63,10.72-12.06,72.77-12.06,72.77c-0.83,5.44-1.39,10.62-1.25,11.52s0.26,1.63,0.51,3.27
			c0,0,0,0,0,0.01c0,0-0.88,2.19-1.96,4.86c0,0,0,0-1.29,4.93c-3.6,13.7-2.67,24.9-2.34,29.33c2.26,29.7-1.59,21.92,3,70.67
			c1.77,18.77,7.65,61.76,7.65,61.76c0.74,5.45-2.73,11.8-7.72,14.11c0,0-13.4,6.21-28.26,8.46c-10.43,1.58-17.12,2.51-23.67-0.66
			c-7.14-3.46-12.08-10.81-18.33-36.67c-0.98-4.08-2.12-8.02-2.66-11.95c-4.71-34.2-5.08-56.2-5.08-56.2
			c-0.09-5.5-0.25-12.68-0.34-15.95s1.48-20.25,2.65-21.26c0,0,0,0,1.81-2.64c0.81-1.18,1.71-2.57,2.68-4.18
			c10.18-16.54,28.86-54.69,43.15-96.59c7.42-21.75,12.83-43.65,12.83-43.65c1.32-5.34-0.22-12.07-3.42-14.95
			c-3.2-2.88-4.96-6.67-4.95-6.68c0.01-0.01,0.42-0.28,0.9-0.58c0,0,0,0,0.91,0c1.2,0,1.2,0,1.2,0c2.23,0.53,3.77,0.07,3.43-1.01
			c-0.34-1.08,2.5-2.13,7.39,0.38L296.85,123.06z"/>
	</g>
	<circle class="st2" cx="212.17" cy="290.44" r="5"/>
	<g>
		<polygon class="st3" points="280.06,329.86 279.93,329.87 278.95,310.86 241.61,312.19 241.61,309.75 278.95,308.41 		"/>
		<path class="st3" d="M280.06,332.3l-31.23,2.54c-3.89,0.32-7.22-2.75-7.22-6.65v-16l37.34-1.33l0.98,19.01L280.06,332.3z"/>
		<line class="st3" x1="256.5" y1="229.19" x2="255.39" y2="308.42"/>
	</g>
	<g>
		<polygon class="st3" points="135.61,329.86 135.74,329.87 136.72,310.86 174.06,312.19 174.06,309.75 136.72,308.41 		"/>
		<path class="st3" d="M135.61,332.3l31.23,2.54c3.89,0.32,7.22-2.75,7.22-6.65v-16l-37.34-1.33l-0.98,19.01L135.61,332.3z"/>
		<line class="st3" x1="159.17" y1="229.19" x2="160.28" y2="308.42"/>
	</g>
	<path class="st3" d="M248.57,181.8c9.7-0.37,19.41-0.74,29.11-1.11c0,3.63,0,7.26,0,10.89c-12.07,1.19-24.15,2.37-36.22,3.56
		C243.83,190.69,246.2,186.24,248.57,181.8z"/>
	<g>
		<path class="st0" d="M263.37,118.43c3.2,2.88,4.74,9.61,3.42,14.95c0,0-5.41,21.9-12.83,43.65
			c-14.29,41.9-32.97,80.05-43.15,96.59c-0.97,1.61-1.87,3-2.68,4.18c-1.81,2.64-1.81,2.64-1.81,2.64
			c-1.17,1.01-2.09,1.02-2.03,0.01c0.05-1,0.23-3.66,0.23-3.66s0.01-0.06,0.03-0.1c0,0,0,0,0.01-0.04c0.25-0.88,0.54-1.89,0.86-3.04
			c0.45-1.54,0.98-3.32,1.6-5.37c0.31-1.07,0.66-2.22,1.02-3.44c0.03-0.1,0.03-0.1,0.03-0.1c0.03-0.1,0.21-0.7,0.4-1.34
			c0,0,0,0,0.17-0.61c0.5-1.66,1.03-3.47,1.59-5.4c0.2-0.66,0.2-0.66,0.2-0.66c0.21-0.76,0.44-1.55,0.51-1.75
			c0.06-0.2,0.27-0.91,0.33-1.11c0,0,0,0,0.05-0.17c0.15-0.51,0.29-1.03,0.45-1.56c0.65-2.24,1.33-4.62,2.05-7.17
			c0.24-0.83,0.47-1.69,0.71-2.55c0.51-1.77,1.02-3.59,1.54-5.51c2.22-7.97,9.72-35.23,17.4-69.75c0.64-2.89,1.28-5.84,1.93-8.84
			c5.09-23.71,8.32-42,8.91-65.26c0.16-6.16,0.16-6.16,0.16-6.16c-0.09-4.74,3-5.42,6.87-1.5c0,0,2.17,2.2,6.72,9.82
			c1.38,2.32,2.56,4.59,3.56,6.75c0.65,1.39,0.65,1.39,0.65,1.39c0.59,1.46,1.08,2.65,1.08,2.65s0.36,0.97,0.79,2.14
			c0.43,1.18-0.48,3.58-2.71,3.06c0,0,0,0-1.2,0c-0.91,0-0.91,0-0.91,0c-0.47,0.3-0.87,0.55-0.88,0.56
			C258.42,111.74,260.17,115.54,263.37,118.43z"/>
		<path class="st1" d="M263.37,118.43c3.2,2.88,4.74,9.61,3.42,14.95c0,0-5.41,21.9-12.83,43.65
			c-14.29,41.9-32.97,80.05-43.15,96.59c-0.97,1.61-1.87,3-2.68,4.18c-1.81,2.64-1.81,2.64-1.81,2.64
			c-1.17,1.01-2.09,1.02-2.03,0.01c0.05-1,0.23-3.66,0.23-3.66s0.01-0.06,0.03-0.1c0,0,0,0,0.01-0.04c0.25-0.88,0.54-1.89,0.86-3.04
			c0.45-1.54,0.98-3.32,1.6-5.37c0.31-1.07,0.66-2.22,1.02-3.44c0.03-0.1,0.03-0.1,0.03-0.1c0.03-0.1,0.21-0.7,0.4-1.34
			c0,0,0,0,0.17-0.61c0.5-1.66,1.03-3.47,1.59-5.4c0.2-0.66,0.2-0.66,0.2-0.66c0.21-0.76,0.44-1.55,0.51-1.75
			c0.06-0.2,0.27-0.91,0.33-1.11c0,0,0,0,0.05-0.17c0.15-0.51,0.29-1.03,0.45-1.56c0.65-2.24,1.33-4.62,2.05-7.17
			c0.24-0.83,0.47-1.69,0.71-2.55c0.51-1.77,1.02-3.59,1.54-5.51c2.22-7.97,9.72-35.23,17.4-69.75c0.64-2.89,1.28-5.84,1.93-8.84
			c5.09-23.71,8.32-42,8.91-65.26c0.16-6.16,0.16-6.16,0.16-6.16c-0.09-4.74,3-5.42,6.87-1.5c0,0,2.17,2.2,6.72,9.82
			c1.38,2.32,2.56,4.59,3.56,6.75c0.65,1.39,0.65,1.39,0.65,1.39c0.59,1.46,1.08,2.65,1.08,2.65s0.36,0.97,0.79,2.14
			c0.43,1.18-0.48,3.58-2.71,3.06c0,0,0,0-1.2,0c-0.91,0-0.91,0-0.91,0c-0.47,0.3-0.87,0.55-0.88,0.56
			C258.42,111.74,260.17,115.54,263.37,118.43z"/>
	</g>
</g>
</svg>
