<svg xmlns="http://www.w3.org/2000/svg" viewBox="0 0 423 520"><defs><style>.cls-1,.cls-2,.cls-3,.cls-4{fill:#fff;}.cls-1,.cls-2,.cls-3,.cls-4,.cls-5,.cls-6{stroke:#000;stroke-miterlimit:10;}.cls-1{stroke-width:2px;}.cls-2{stroke-width:1.98px;}.cls-3{stroke-width:0.99px;}.cls-5,.cls-6{fill:none;}.cls-6{stroke-width:1.25px;}</style></defs><g id="Layer_3" data-name="Layer 3"><path class="cls-1" d="M198.89,360.11v11.54c0,1.52,0,3,.07,4.54.06,3,.14,6,.24,8.89.26,7.75.66,15.29,1.16,22.56,0,.76.1,1.5.16,2.25.52,7.47,1.16,14.65,1.87,21.47-5.45.75-21.3,1.05-26.88,1.48-5.74.43-15.86-.43-21.52-.33q-.26-5.38-.51-10.6-1-20.07-1.88-37.91c-.1-2.12-.21-4.2-.33-6.26-.1-1.85-.19-3.68-.29-5.5q-.49-8.76-1-17-.33-5.46-.69-10.77c0-.64-.09-1.28-.13-1.92-1.78-26.39,0-49.61-1.54-67.74-3-35.86-6.71-73.18-1.72-124.52,2.12-21.79,5.17-39.72,7.55-51.94l58,4.19q-.15,49.2-.34,98.39c-10,36.14-8.7,79.94-11.48,131.41q-.44,7.92-.62,15.73Q199,354.12,198.89,360.11Z"/><path class="cls-1" d="M275.36,274.73c-1.53,18.13.24,41.35-1.54,67.74-.1,1.49-.19,3-.27,4.51-.57,10.76-.65,22-.67,33.87v17.54c0,3.7-.05,7.47-.11,11.31,0,3.62-.13,7.28-.24,11s-.25,7.62-.44,11.72c-5.67-.1-27.61,1-33.35.54-5.58-.43-11.76-1.9-17.21-2.66q.72-7,1.16-14.39c.22-3.47.38-7,.51-10.6v-.95c0-1.33.08-2.67.11-4,0-1,.05-2.07.07-3.12q.08-3.87.09-7.81,0-7.38-.1-15-.1-6.42-.32-13-.45-13.83-1.25-28.4c-2.78-51.47.06-96-9.92-132.15q-.15-49.18-.34-98.39l58-4.19c2.38,12.22,5.43,30.15,7.55,51.94C282.07,201.56,278.4,238.88,275.36,274.73Z"/><path class="cls-2" d="M153.72,97.56c5.16,5.17,16.91,4.78,16.91,4.78,12.9-.43-.32,2,31.21,2.24,15.69.13,23.54.2,34.57-.78a259.17,259.17,0,0,0,33.8-5.26c.33-1.86-.06-2.7-.48-3.12s-.93-.49-1.05-1,.63-.91.67-1.75-.9-1.14-1-2.25c0-.61.24-.64.48-1.75.2-1,.39-1.85,0-2.25s-1.48.42-3.46.39c-1.66,0-1.78-.69-3-.48-1.64.28-1.9,1.64-3.16,1.56-1.06-.07-1.13-1-2.31-1.17s-1.28.59-2.88,1-1.6-.19-3.27.1c-1.84.32-1.9,1-3.36,1.07s-1.57-.63-3.07-.58-1.53.64-3.07.87-1.93-.35-3.84-.39c-2.14,0-2,.71-4.23.78s-2.65-.72-5-.48c-1.34.13-1.34.41-2.69.48-1.85.11-2.05-.39-3.84-.39-2,0-2.12.63-4.13.59-1.62,0-1.55-.43-3.17-.49-2.13-.08-2.49.6-4.61.59-1.76,0-1.6-.48-3.56-.59-2.3-.13-2.55.52-5.09.49-1.82,0-1.79-.36-3.84-.39-2.26,0-2.26.38-4,.29-2.48-.11-2.75-.93-5-.88-1.78,0-1.66.56-3.37.59-2.39,0-2.69-1-5.09-1-2,0-2.07.73-3.74.49-2.07-.29-2.27-1.45-3.94-1.36-1.52.08-2,1.1-3.36.78-.85-.21-.75-.65-1.73-1-1.49-.5-2,.42-3.55,0-1.17-.32-1.2-1-2.31-1.07s-1.08.4-2,.39c-1.63,0-2-1.49-3.27-1.37a3.09,3.09,0,0,0-2.21,2.34c-.27,1.15.39,1.5.29,3.42a7.3,7.3,0,0,1-.38,2.14c-.44,1.27-.95,1.55-1,2.34A3,3,0,0,0,153.72,97.56Z"/><path class="cls-3" d="M154.88,90.54a18.05,18.05,0,0,1,4.61.68c1.68.49,2.29,1,3.84,1.08,1.74.13,1.77-.4,3.36-.3,2.18.14,2.62,1.17,5.09,1.56,1.61.26,1.52-.17,3.17,0,3.78.4,4.66,2.69,7.1,2.25,1.57-.29,1.42-1.27,3.27-1.76s2.66.31,5.57.88a50.06,50.06,0,0,0,8,.29c2.65,0,4,0,5-.1,3.84-.38,4.8-1.2,7-.58a17.52,17.52,0,0,0,3.08.88,12.61,12.61,0,0,0,3.07,0c3.71-.39,3.85-1,6-1.08,2.94-.11,3.18,1.06,6,.78,2.19-.21,2-.88,4.13-1.07,2.89-.25,3.42.93,6.34.59,1.7-.21,1.84-.65,3.56-.69,2,0,2.2.54,3.84.49,2.26-.07,2.34-1.22,5-1.66,2.19-.36,2.39.39,4.61-.09,1.85-.41,1.89-1,3.55-1.17,1.83-.24,2.32.36,4,.19a7.92,7.92,0,0,0,3.65-1.37"/><polyline class="cls-3" points="158.91 93.1 158.91 94.96 157.85 95.86 157.85 97.37"/><polyline class="cls-3" points="162.33 93.73 162.33 95.59 161.28 96.49 161.28 97.99"/><polyline class="cls-3" points="167.1 94.96 167.1 96.82 166.04 97.72 166.04 99.22"/><polyline class="cls-3" points="171.62 95.23 171.62 97.09 170.57 97.99 170.57 99.5"/><polyline class="cls-3" points="176.58 95.86 176.58 97.72 175.52 98.62 175.52 100.13"/><polyline class="cls-3" points="180.52 97.09 180.52 98.95 179.46 99.85 179.46 101.35"/><polyline class="cls-3" points="184.94 97.37 184.94 99.22 183.88 100.13 183.88 101.63"/><polyline class="cls-3" points="241.69 97.09 241.69 98.95 242.75 99.85 242.75 101.35"/><polyline class="cls-3" points="247.45 96.64 247.45 98.5 248.51 99.4 248.51 100.91"/><polyline class="cls-3" points="252.7 95.86 252.7 97.72 253.76 98.62 253.76 100.13"/><polyline class="cls-3" points="257.75 94.96 257.75 96.82 258.8 97.72 258.8 99.22"/><polyline class="cls-3" points="261.5 94.28 261.5 96.13 262.56 97.03 262.56 98.54"/><polyline class="cls-3" points="265.1 93.4 265.1 95.25 266.16 96.16 266.16 97.66"/><line class="cls-3" x1="189.26" y1="97.37" x2="188.1" y2="101.95"/><line class="cls-3" x1="193.46" y1="97.83" x2="192.31" y2="102.42"/><line class="cls-3" x1="197.88" y1="97.83" x2="196.73" y2="102.42"/><line class="cls-3" x1="201.9" y1="97.83" x2="200.75" y2="102.42"/><line class="cls-3" x1="205.18" y1="98.15" x2="204.99" y2="102.88"/><line class="cls-3" x1="210.02" y1="98.15" x2="209.83" y2="102.88"/><line class="cls-3" x1="214.63" y1="98.15" x2="214.44" y2="102.88"/><line class="cls-3" x1="218.87" y1="98.19" x2="219.71" y2="102.84"/><line class="cls-3" x1="223.74" y1="98.19" x2="224.58" y2="102.84"/><line class="cls-3" x1="228.44" y1="97.8" x2="229.27" y2="102.45"/><line class="cls-3" x1="232.72" y1="97.17" x2="233.55" y2="101.82"/><line class="cls-3" x1="236.87" y1="97.33" x2="237.71" y2="101.98"/><path class="cls-4" d="M236.37,109.89c2.86,5.77,8.53,32.2-2.85,63.11-5.61,15.23-7.63,26.6-13.59,32"/><path class="cls-4" d="M176.78,106.43c-2.85,5.77-.79,29.88,10.59,60.79,5.61,15.24-.1,28.92,5.86,34.32"/></g><g id="Layer_2" data-name="Layer 2"><path class="cls-5" d="M223,108.46a156.92,156.92,0,0,1-8,70.22"/><path class="cls-5" d="M257,115.67c1.16,10.24-9.34,22.86-11.46,38.31-1.68,12.29-5.69,57.34-8.64,65.69"/><path class="cls-5" d="M161.2,104.66c-3.47,21.67,12.35,28.37,14.47,43.82,1.68,12.28-5,47.41,8,65.41"/><path class="cls-6" d="M195.85,104.66a196.06,196.06,0,0,0,10,87.65"/></g></svg>