<?xml version="1.0" encoding="utf-8"?>
<!-- Generator: Adobe Illustrator 26.0.1, SVG Export Plug-In . SVG Version: 6.00 Build 0)  -->
<svg version="1.1" xmlns="http://www.w3.org/2000/svg" xmlns:xlink="http://www.w3.org/1999/xlink" x="0px" y="0px"
	 viewBox="0 0 423 520" style="enable-background:new 0 0 423 520;" xml:space="preserve">
<style type="text/css">
	.st0{fill:#FFFFFF;stroke:#000000;stroke-width:2.8552;stroke-linecap:round;stroke-linejoin:round;stroke-miterlimit:10;}
	.st1{fill:#FFFFFF;stroke:#000000;stroke-width:2.2398;stroke-linecap:round;stroke-linejoin:round;stroke-miterlimit:10;}
	.st2{fill:#FFFFFF;stroke:#000000;stroke-width:1.0826;stroke-linejoin:round;stroke-miterlimit:10;}
	.st3{fill:#FFFFFF;stroke:#000000;stroke-width:0.999;stroke-linejoin:round;stroke-miterlimit:10;}
</style>
<g id="Layer_1">
	<path class="st0" d="M316.1,111.7c1,0.7,1,3.2,1.1,6.9c0.1,3.4-0.3,5.9-0.4,6.3c-2.2,13.5-0.6,37.5-2.9,65
		c-0.2,2.4-0.7,7.8,2.1,13.6c2,4.2,4.8,6.9,6.6,8.4c-3.4,1.8-9.1,4.2-15.1,2.8c-20.6-4.8-34.7-51.3-18.9-79.9
		C296.7,120.1,313.1,109.5,316.1,111.7z"/>
	<path class="st0" d="M106,111.7c-1,0.7-1,3.2-1.1,6.9c-0.1,3.4,0.3,5.9,0.4,6.3c2.2,13.5,0.6,37.5,2.9,65c0.2,2.4,0.7,7.8-2.1,13.6
		c-2,4.2-4.8,6.9-6.6,8.4c3.4,1.8,9.1,4.2,15.1,2.8c20.6-4.8,34.7-51.3,18.9-79.9C125.4,120.1,109,109.5,106,111.7z"/>
	<path class="st1" d="M260.5,91.1c-2.8-1.1-4.2-2.6-5-3.7c-1.6-2.2-2.4-5-3.5-9.4c-0.6-2.3-0.7-3.4-1.7-4.5
		c-1.3-1.6-3.2-2.2-4.6-2.4c0.2,1.4,0.4,3.7-0.1,6.4c-0.2,0.8-0.8,3.8-2.7,6.5c-2.4,3.5-5.8,4.9-10.1,6.6c-4,1.6-7.1,2.2-12.5,4.5
		c-0.8,0.3-2.2,1-3.9,2.3c-0.8,0.7-2.4,2-3.5,4.2c-1.3,2.5-1.4,4.9-1.5,7.7c-0.1,1.9-0.1,2.9,0.1,3.4c2.2,4.7,20.3,0.3,22.7-0.3
		c11.4-2.8,22.8-5.6,25.8-14.4C260.8,95.2,260.7,92.7,260.5,91.1z"/>
	<path class="st0" d="M161.5,91.1c2.8-1.1,4.2-2.6,5.1-3.7c1.6-2.2,2.4-5,3.5-9.4c0.6-2.3,0.7-3.4,1.7-4.5c1.3-1.6,3.2-2.2,4.6-2.4
		c-0.2,1.4-0.4,3.7,0.1,6.4c0.2,0.8,0.8,3.8,2.7,6.5c2.4,3.5,5.8,4.9,10.1,6.6c4,1.6,7.1,2.2,12.5,4.5c0.8,0.3,2.2,1,3.9,2.3
		c0.8,0.7,2.4,2,3.5,4.2c1.3,2.5,1.4,4.9,1.5,7.7c0.1,1.9,0.1,2.9-0.1,3.4c-2.2,4.7-20.4,0.3-22.7-0.3c-11.4-2.8-22.8-5.6-25.8-14.4
		C161.2,95.2,161.2,92.7,161.5,91.1z"/>
	<path class="st0" d="M200.7,110.4c-4-0.8-5.8-0.7-10-2c-1.5-0.4-5.3-1.7-10-4.4c-4-2.3-9.1-5.3-12.8-11.2c-1-1.7-1.7-3.2-2.1-4.2
		c-20,7.5-39.9,14.9-59.9,22.4c1.8,4.2,4.1,10.2,6,17.5c2.3,9.1,2.9,15.7,3.9,28c1.4,17.3,0.6,24.3,0.1,27.5
		c-1.2,9-3.1,12.9-4.5,15.2c-3.8,6.4-9,10.1-12.2,11.9c1.9,9.7,4.2,23,5.8,38.9c0.7,6.8,3.2,32.3,2,67.8c-0.5,15.2-1.5,25.7-3.5,46
		c-1.7,18-4.4,42.3-8.6,71.3c2.7,1,6.7,2.4,11.7,3.9c11.3,3.3,23.6,5.6,48.8,7c13,0.7,29.5,1.2,48.9,0.7
		c3.3-110.6,6.6-221.2,10-331.7C208.8,112.4,204.1,111.1,200.7,110.4z"/>
	<path class="st0" d="M199.6,111c9.8,0.9,17.9-0.1,23.3-1.1c8.2-1.6,16.3-3.1,23.9-9.5c5-4.2,8-9,9.6-12.2c20,7.7,40,15.4,60,23.1
		c-5.7,16.6-8.2,30.8-9.5,41.1c-1.1,9-0.9,15.3-0.5,27.9c0.1,2.2,0.5,13.2,5.1,20.9c1.4,2.4,3,4.1,3.2,4.4c3.2,3.4,6.6,5.3,8.8,6.2
		c-2,9.8-4.3,23.4-6,39.8c-2.4,24-2.2,42.4-1.9,58.6c0.3,14.7,0.6,33,3.5,56.7c1.7,14.1,4.1,28.4,7.8,60.1c0.4,3.2,0.7,5.8,0.9,7.6
		c-4.5,1.5-10.9,3.4-18.8,5.4c-18.4,4.5-32.4,5.7-49.3,7.1c-19.6,1.6-35.4,1.8-48,1.9c-5.8,0-10.6,0-13.9,0c0-2.2,0.1-26.5,0.1-28.7
		C198.5,317.2,199,214.1,199.6,111z"/>
	<polygon class="st2" points="239.8,333.3 299.3,330.6 299.3,335.5 239.8,338.3 	"/>
	<polygon class="st2" points="180.9,334.9 121.4,332.2 121.4,337.1 180.9,339.8 	"/>
	<polygon class="st3" points="285.1,184.8 244.7,184.8 247.8,174 288,174 	"/>
	<g>
		<circle cx="207.6" cy="120.2" r="4.6"/>
		<circle cx="207.6" cy="173.2" r="4.6"/>
		<circle cx="207.6" cy="226.1" r="4.6"/>
		<circle cx="207.6" cy="279" r="4.6"/>
		<circle cx="207.6" cy="332" r="4.6"/>
	</g>
</g>
<g id="Layer_2">
</g>
</svg>
