<svg id="Layer_1" data-name="Layer 1" xmlns="http://www.w3.org/2000/svg" viewBox="0 0 423 520"><defs><style>.cls-1{fill:#fff;stroke-width:2.54px;}.cls-1,.cls-2{stroke:#000;stroke-miterlimit:10;}.cls-2{fill:none;stroke-width:2.28px;}</style></defs><rect class="cls-1" x="65.67" y="221" width="291.66" height="47.7"/><rect class="cls-1" x="79.94" y="232.43" width="4.52" height="29.01"/><rect class="cls-1" x="96.15" y="232.43" width="4.52" height="29.01"/><rect class="cls-1" x="112.35" y="232.43" width="4.52" height="29.01"/><rect class="cls-1" x="128.55" y="232.43" width="4.52" height="29.01"/><rect class="cls-1" x="144.76" y="232.43" width="4.52" height="29.01"/><rect class="cls-1" x="160.96" y="232.43" width="4.52" height="29.01"/><rect class="cls-1" x="177.16" y="232.43" width="4.52" height="29.01"/><rect class="cls-1" x="193.37" y="232.43" width="4.52" height="29.01"/><rect class="cls-1" x="209.57" y="232.43" width="4.52" height="29.01"/><rect class="cls-1" x="225.77" y="232.43" width="4.52" height="29.01"/><rect class="cls-1" x="241.98" y="232.43" width="4.52" height="29.01"/><rect class="cls-1" x="258.18" y="232.43" width="4.52" height="29.01"/><rect class="cls-1" x="274.38" y="232.43" width="4.52" height="29.01"/><rect class="cls-1" x="290.58" y="232.43" width="4.52" height="29.01"/><rect class="cls-1" x="306.79" y="232.43" width="4.52" height="29.01"/><rect class="cls-1" x="322.99" y="232.43" width="4.52" height="29.01"/><rect class="cls-1" x="339.19" y="232.43" width="4.52" height="29.01"/><rect class="cls-2" x="65.67" y="239.97" width="291.66" height="13.94"/></svg>