<svg id="Layer_1" data-name="Layer 1" xmlns="http://www.w3.org/2000/svg" viewBox="0 0 423 520"><path d="M359.33,368.36v.6a6.08,6.08,0,0,0-.69.54q-7.06,7-14.1,14.09c-.15.16-.27.35-.57.72h-.91L236.35,277.61c1.53-.49,2.55-.84,3.58-1.15,6.3-1.88,12.64-3.59,19.31-3.24,1.1.06,2.2.22,3.29.39a6.85,6.85,0,0,1,3.87,2.06q29.53,29.61,59.12,59.16,16.28,16.28,32.56,32.54A12.08,12.08,0,0,0,359.33,368.36Z"/><path d="M144.58,219.54a47.1,47.1,0,0,0-17.44,14c-.42-.39-.81-.73-1.18-1.1l-64.1-64.15c-1.13-1.13-2.31-2.22-3.46-3.33v-.3c1.15-1.09,2.32-2.17,3.44-3.29Q68,155.17,74,149h.31c1.06,1.17,2.07,2.38,3.19,3.5q33,33,66,65.92C143.85,218.74,144.17,219.11,144.58,219.54Z"/><path d="M236.7,246.1c-6,2-12,4-17.93,6.07-1.37.47-2.74,1-4.06,1.55a1.83,1.83,0,0,1-2.35-.45c-15.11-14.43-32.82-17.53-52.47-11.91a25.15,25.15,0,0,0-9.91,5.51c-3.91,3.52-4.68,7.15-2.36,11.87a23.17,23.17,0,0,0,9.06,10,6.09,6.09,0,0,1,1.21.87q11.18,11.14,22.33,22.33a5.43,5.43,0,0,1,.44.6c-1.68.26-3.21.55-4.75.74-11.35,1.39-22.25.2-32.07-6.19a44.57,44.57,0,0,1-17.7-22c-4.73-12.45-1.5-25.22,8.62-34.49,6.82-6.25,15-9.88,23.88-12a72.79,72.79,0,0,1,18.76-2.1c19.18.38,36,6.7,49.87,20.14,2.92,2.83,5.75,5.74,8.62,8.61C236.2,245.51,236.47,245.85,236.7,246.1Z"/><path d="M274.44,320.66A64.42,64.42,0,0,1,260,323.73c-20.55,1.87-39.42-2.84-56.23-15a82.43,82.43,0,0,1-9.68-8.33c-14-13.83-27.83-27.77-41.73-41.67-3.07-3.07-3-6.34.26-9.19,4.3-3.75,9.55-5.37,15-6.33.46-.08,1.15.46,1.57.88q20,20,40,40c12.24,12.31,27.1,18,44.33,17.7a4.54,4.54,0,0,1,3.67,1.47c5.33,5.44,10.75,10.8,16.14,16.19C273.69,319.82,274,320.19,274.44,320.66Z"/><path d="M298.64,302.87l-8.41-8.58c-1.87-1.89-3.75-3.76-5.63-5.64a52.75,52.75,0,0,1-7.45-8.77c-5.15-8.1-12.85-11.2-22.3-10.36-9.24.82-17.89,3.83-26.52,6.93-4.85,1.73-9.63,3.65-14.43,5.5a1.43,1.43,0,0,1-1.85-.24c-5.32-5.39-10.69-10.73-16-16.08-.13-.14-.23-.3-.44-.57l4.26-1.62c8.37-3.18,16.71-6.45,25.12-9.52a110.85,110.85,0,0,1,25.3-6.38c16.35-1.86,30.64,2.1,41.7,15,5.18,6,9.08,12.73,10.37,20.7A29.18,29.18,0,0,1,298.64,302.87Z"/></svg>